<svg width="233" height="51" viewBox="0 0 233 51" fill="none" xmlns="http://www.w3.org/2000/svg">
<path d="M13.37 50.4H2.52001C1.63335 50.4 0.980014 50.2134 0.560014 49.84C0.186681 49.42 1.38283e-05 48.7667 1.38283e-05 47.88V2.52002C1.38283e-05 1.63336 0.186681 1.00336 0.560014 0.630023C0.980014 0.210022 1.63335 2.24113e-05 2.52001 2.24113e-05H33.74C34.6267 2.24113e-05 35.2567 0.210022 35.63 0.630023C36.05 1.00336 36.26 1.63336 36.26 2.52002V10.85C36.26 11.7367 36.05 12.39 35.63 12.81C35.2567 13.1834 34.6267 13.37 33.74 13.37H15.89V20.65H28.07C28.9567 20.65 29.5867 20.86 29.96 21.28C30.38 21.6534 30.59 22.2834 30.59 23.17V31.57C30.59 32.4567 30.38 33.11 29.96 33.53C29.5867 33.9034 28.9567 34.09 28.07 34.09H15.89V47.88C15.89 48.7667 15.68 49.42 15.26 49.84C14.8867 50.2134 14.2567 50.4 13.37 50.4ZM81.4215 50.4H45.7915C44.9048 50.4 44.2515 50.2134 43.8315 49.84C43.4582 49.42 43.2715 48.7667 43.2715 47.88V2.52002C43.2715 1.63336 43.4582 1.00336 43.8315 0.630023C44.2515 0.210022 44.9048 2.24113e-05 45.7915 2.24113e-05H56.6415C57.5282 2.24113e-05 58.1582 0.210022 58.5315 0.630023C58.9515 1.00336 59.1615 1.63336 59.1615 2.52002V37.17H68.7515V25.83C68.7515 24.9434 68.9382 24.3134 69.3115 23.94C69.7315 23.52 70.3848 23.31 71.2715 23.31H81.4215C82.3082 23.31 82.9382 23.52 83.3115 23.94C83.7315 24.3134 83.9415 24.9434 83.9415 25.83V47.88C83.9415 48.7667 83.7315 49.42 83.3115 49.84C82.9382 50.2134 82.3082 50.4 81.4215 50.4ZM110.213 14.7L106.923 25.34H117.913L114.623 14.7C114.437 14.28 114.227 13.9767 113.993 13.79C113.807 13.6034 113.573 13.51 113.293 13.51H111.543C111.263 13.51 111.007 13.6034 110.773 13.79C110.587 13.9767 110.4 14.28 110.213 14.7ZM106.223 47.88C106.223 48.7667 106.013 49.42 105.593 49.84C105.22 50.2134 104.59 50.4 103.703 50.4H93.4134C92.5267 50.4 91.8734 50.2134 91.4534 49.84C91.08 49.42 90.8934 48.7667 90.8934 47.88V29.4C90.8934 28 91.1034 26.39 91.5234 24.57C91.99 22.75 92.69 20.6267 93.6234 18.2L99.7134 2.31002C99.9934 1.51669 100.413 0.933355 100.973 0.560024C101.58 0.186689 102.35 2.24113e-05 103.283 2.24113e-05H122.113C123 2.24113e-05 123.723 0.186689 124.283 0.560024C124.89 0.933355 125.333 1.51669 125.613 2.31002L131.703 18.2C132.637 20.6267 133.313 22.75 133.733 24.57C134.2 26.39 134.433 28 134.433 29.4V47.88C134.433 48.7667 134.223 49.42 133.803 49.84C133.43 50.2134 132.8 50.4 131.913 50.4H121.343C120.41 50.4 119.71 50.2134 119.243 49.84C118.823 49.42 118.613 48.7667 118.613 47.88V38.08H106.223V47.88ZM158.896 12.6V21.56H164.146C165.36 21.56 166.176 21.2567 166.596 20.65C167.016 19.9967 167.226 19.2034 167.226 18.27V15.89C167.226 14.9567 167.016 14.1867 166.596 13.58C166.176 12.9267 165.36 12.6 164.146 12.6H158.896ZM156.376 50.4H145.596C144.71 50.4 144.056 50.2134 143.636 49.84C143.263 49.42 143.076 48.7667 143.076 47.88V2.52002C143.076 1.63336 143.263 1.00336 143.636 0.630023C144.056 0.210022 144.71 2.24113e-05 145.596 2.24113e-05H168.906C174.133 2.24113e-05 177.726 1.09669 179.686 3.29002C181.693 5.43669 182.696 8.23669 182.696 11.69V14.91C182.696 16.87 182.393 18.55 181.786 19.95C181.226 21.3034 180.223 22.2834 178.776 22.89C181.296 23.17 183.326 24.1967 184.866 25.97C186.453 27.7434 187.246 30.1 187.246 33.04V47.88C187.246 48.7667 187.036 49.42 186.616 49.84C186.243 50.2134 185.613 50.4 184.726 50.4H173.876C172.99 50.4 172.336 50.2134 171.916 49.84C171.543 49.42 171.356 48.7667 171.356 47.88V37.17C171.356 36.1434 171.146 35.3967 170.726 34.93C170.353 34.4167 169.676 34.16 168.696 34.16H158.896V47.88C158.896 48.7667 158.686 49.42 158.266 49.84C157.893 50.2134 157.263 50.4 156.376 50.4ZM230.098 50.4H197.618C196.731 50.4 196.078 50.2134 195.658 49.84C195.284 49.42 195.098 48.7667 195.098 47.88V2.52002C195.098 1.63336 195.284 1.00336 195.658 0.630023C196.078 0.210022 196.731 2.24113e-05 197.618 2.24113e-05H230.098C230.984 2.24113e-05 231.614 0.210022 231.988 0.630023C232.408 1.00336 232.618 1.63336 232.618 2.52002V10.71C232.618 11.5967 232.408 12.25 231.988 12.67C231.614 13.0434 230.984 13.23 230.098 13.23H210.778V18.62H224.428C225.314 18.62 225.944 18.83 226.318 19.25C226.738 19.6234 226.948 20.2534 226.948 21.14V28.63C226.948 29.5167 226.738 30.17 226.318 30.59C225.944 30.9634 225.314 31.15 224.428 31.15H210.778V37.17H230.098C230.984 37.17 231.614 37.38 231.988 37.8C232.408 38.1734 232.618 38.8034 232.618 39.69V47.88C232.618 48.7667 232.408 49.42 231.988 49.84C231.614 50.2134 230.984 50.4 230.098 50.4Z" fill="#E53935"/>
</svg>
