<svg xmlns="http://www.w3.org/2000/svg" width="64" height="64" viewBox="0 0 24 24"><path fill="#FFFFFF" d="M7.827 10.635q-1.171 0-2-.828Q5 8.979 5 7.807q0-1.17.828-1.998q.828-.828 1.999-.828q1.171 0 1.999.828q.828.828.828 1.999q0 1.17-.828 1.999q-.828.828-2 .828Zm-.001-1q.76 0 1.294-.533q.534-.532.534-1.293q0-.76-.533-1.295q-.532-.533-1.293-.533q-.76 0-1.294.532Q6 7.046 6 7.807q0 .76.533 1.294q.532.534 1.293.534ZM16.192 19q-1.17 0-1.999-.828q-.828-.828-.828-1.999q0-1.171.828-1.999q.828-.828 2-.828q1.17 0 1.998.828q.828.828.828 2q0 1.17-.828 1.998q-.828.828-1.999.828Zm0-1q.76 0 1.294-.533q.533-.532.533-1.293q0-.76-.532-1.294q-.533-.534-1.294-.534q-.76 0-1.294.533q-.534.532-.534 1.293q0 .76.533 1.294q.532.534 1.293.534Zm-10.311.808l-.689-.689L18.138 5.173l.689.689L5.88 18.808Z"/></svg>